<mxfile host="app.diagrams.net" modified="2023-04-06T20:35:50.322Z" agent="Mozilla/5.0 (Windows NT 10.0; Win64; x64) AppleWebKit/537.36 (KHTML, like Gecko) Chrome/111.0.0.0 Safari/537.36" etag="6kO17gjLFGk4qb0JkMD3" version="21.1.4" type="device">
  <diagram name="Página-1" id="BNqC6CWlJzEKuW0JKOch">
    <mxGraphModel dx="1150" dy="427" grid="1" gridSize="10" guides="1" tooltips="1" connect="1" arrows="1" fold="1" page="1" pageScale="1" pageWidth="827" pageHeight="1169" math="0" shadow="0">
      <root>
        <mxCell id="0" />
        <mxCell id="1" parent="0" />
        <mxCell id="Z9Syrcvqy4jxzuHilq_a-1" value="" style="rounded=0;whiteSpace=wrap;html=1;" vertex="1" parent="1">
          <mxGeometry x="180" y="114" width="540" height="370" as="geometry" />
        </mxCell>
        <mxCell id="Z9Syrcvqy4jxzuHilq_a-30" style="edgeStyle=orthogonalEdgeStyle;rounded=0;orthogonalLoop=1;jettySize=auto;html=1;strokeColor=#ff0000;" edge="1" parent="1" source="Z9Syrcvqy4jxzuHilq_a-2" target="Z9Syrcvqy4jxzuHilq_a-29">
          <mxGeometry relative="1" as="geometry">
            <mxPoint x="270" y="315" as="targetPoint" />
          </mxGeometry>
        </mxCell>
        <mxCell id="Z9Syrcvqy4jxzuHilq_a-2" value="" style="ellipse;html=1;shape=startState;fillColor=#000000;strokeColor=#ff0000;" vertex="1" parent="1">
          <mxGeometry x="205" y="291" width="30" height="30" as="geometry" />
        </mxCell>
        <mxCell id="Z9Syrcvqy4jxzuHilq_a-4" value="&lt;font style=&quot;font-size: 9px;&quot;&gt;1. Calendario.criar()&lt;/font&gt;" style="rounded=1;whiteSpace=wrap;html=1;arcSize=40;fontColor=#000000;fillColor=#ffffc0;strokeColor=#ff0000;align=center;fontStyle=0" vertex="1" parent="1">
          <mxGeometry x="410" y="146" width="120" height="30" as="geometry" />
        </mxCell>
        <mxCell id="Z9Syrcvqy4jxzuHilq_a-11" style="edgeStyle=orthogonalEdgeStyle;rounded=0;orthogonalLoop=1;jettySize=auto;html=1;entryX=0;entryY=0.5;entryDx=0;entryDy=0;exitX=0.803;exitY=0.5;exitDx=0;exitDy=0;exitPerimeter=0;strokeColor=#ff0000;" edge="1" parent="1" source="Z9Syrcvqy4jxzuHilq_a-8" target="Z9Syrcvqy4jxzuHilq_a-4">
          <mxGeometry relative="1" as="geometry">
            <Array as="points">
              <mxPoint x="350" y="161" />
            </Array>
          </mxGeometry>
        </mxCell>
        <mxCell id="Z9Syrcvqy4jxzuHilq_a-8" value="" style="shape=line;html=1;strokeWidth=6;strokeColor=#ff0000;rotation=-90;" vertex="1" parent="1">
          <mxGeometry x="292.5" y="203.5" width="115" height="10" as="geometry" />
        </mxCell>
        <mxCell id="Z9Syrcvqy4jxzuHilq_a-12" value="&lt;font style=&quot;font-size: 9px;&quot;&gt;2. Calendario.dataAtual = Calendario.gerar(&quot;atual&quot;)&lt;/font&gt;" style="rounded=1;whiteSpace=wrap;html=1;arcSize=40;fontColor=#000000;fillColor=#ffffc0;strokeColor=#ff0000;align=center;fontStyle=0" vertex="1" parent="1">
          <mxGeometry x="410" y="186" width="120" height="40" as="geometry" />
        </mxCell>
        <mxCell id="Z9Syrcvqy4jxzuHilq_a-13" style="edgeStyle=orthogonalEdgeStyle;rounded=0;orthogonalLoop=1;jettySize=auto;html=1;entryX=0;entryY=0.5;entryDx=0;entryDy=0;exitX=0.803;exitY=0.5;exitDx=0;exitDy=0;exitPerimeter=0;strokeColor=#ff0000;" edge="1" parent="1">
          <mxGeometry relative="1" as="geometry">
            <mxPoint x="350" y="216" as="sourcePoint" />
            <mxPoint x="410" y="208" as="targetPoint" />
            <Array as="points">
              <mxPoint x="350" y="208" />
            </Array>
          </mxGeometry>
        </mxCell>
        <mxCell id="Z9Syrcvqy4jxzuHilq_a-14" value="&lt;font style=&quot;font-size: 7px;&quot;&gt;3. Calendario.atualizar(Calendario.dataAtual)&lt;/font&gt;" style="rounded=1;whiteSpace=wrap;html=1;arcSize=40;fontColor=#000000;fillColor=#ffffc0;strokeColor=#ff0000;align=center;fontStyle=0" vertex="1" parent="1">
          <mxGeometry x="410" y="236" width="160" height="40" as="geometry" />
        </mxCell>
        <mxCell id="Z9Syrcvqy4jxzuHilq_a-15" style="edgeStyle=orthogonalEdgeStyle;rounded=0;orthogonalLoop=1;jettySize=auto;html=1;entryX=0;entryY=0.5;entryDx=0;entryDy=0;exitX=0.803;exitY=0.5;exitDx=0;exitDy=0;exitPerimeter=0;strokeColor=#ff0000;" edge="1" parent="1">
          <mxGeometry relative="1" as="geometry">
            <mxPoint x="350" y="266" as="sourcePoint" />
            <mxPoint x="410" y="258" as="targetPoint" />
            <Array as="points">
              <mxPoint x="350" y="258" />
            </Array>
          </mxGeometry>
        </mxCell>
        <mxCell id="Z9Syrcvqy4jxzuHilq_a-17" value="" style="html=1;dropTarget=0;whiteSpace=wrap;fillColor=none;dashed=1;dashPattern=1 2;shadow=0;rounded=1;strokeColor=#82b366;" vertex="1" parent="1">
          <mxGeometry x="390" y="140" width="190" height="146" as="geometry" />
        </mxCell>
        <mxCell id="Z9Syrcvqy4jxzuHilq_a-19" value="&lt;font color=&quot;#82b366&quot; style=&quot;font-size: 8px;&quot;&gt;Inicializa calendário&lt;/font&gt;" style="text;html=1;strokeColor=none;fillColor=none;align=center;verticalAlign=middle;whiteSpace=wrap;rounded=0;" vertex="1" parent="1">
          <mxGeometry x="576" y="198" width="110" height="30" as="geometry" />
        </mxCell>
        <mxCell id="Z9Syrcvqy4jxzuHilq_a-20" value="&lt;font style=&quot;font-size: 8px;&quot;&gt;4.1 Input.habilitar(&quot;calendario&quot;)&lt;/font&gt;" style="rounded=1;whiteSpace=wrap;html=1;arcSize=40;fontColor=#000000;fillColor=#ffffc0;strokeColor=#ff0000;" vertex="1" parent="1">
          <mxGeometry x="413.75" y="326" width="126.25" height="30" as="geometry" />
        </mxCell>
        <mxCell id="Z9Syrcvqy4jxzuHilq_a-21" style="edgeStyle=orthogonalEdgeStyle;rounded=0;orthogonalLoop=1;jettySize=auto;html=1;entryX=0;entryY=0.5;entryDx=0;entryDy=0;exitX=0.803;exitY=0.5;exitDx=0;exitDy=0;exitPerimeter=0;strokeColor=#ff0000;" edge="1" parent="1" source="Z9Syrcvqy4jxzuHilq_a-22" target="Z9Syrcvqy4jxzuHilq_a-20">
          <mxGeometry relative="1" as="geometry">
            <Array as="points">
              <mxPoint x="353.75" y="341" />
            </Array>
          </mxGeometry>
        </mxCell>
        <mxCell id="Z9Syrcvqy4jxzuHilq_a-22" value="" style="shape=line;html=1;strokeWidth=6;strokeColor=#ff0000;rotation=-90;" vertex="1" parent="1">
          <mxGeometry x="296.25" y="383.5" width="115" height="10" as="geometry" />
        </mxCell>
        <mxCell id="Z9Syrcvqy4jxzuHilq_a-23" value="&lt;font style=&quot;font-size: 8px;&quot;&gt;4.2 Input.habilitar(&quot;dia&quot;)&lt;/font&gt;" style="rounded=1;whiteSpace=wrap;html=1;arcSize=40;fontColor=#000000;fillColor=#ffffc0;strokeColor=#ff0000;" vertex="1" parent="1">
          <mxGeometry x="414" y="373.5" width="126" height="30" as="geometry" />
        </mxCell>
        <mxCell id="Z9Syrcvqy4jxzuHilq_a-24" style="edgeStyle=orthogonalEdgeStyle;rounded=0;orthogonalLoop=1;jettySize=auto;html=1;entryX=0;entryY=0.5;entryDx=0;entryDy=0;exitX=0.803;exitY=0.5;exitDx=0;exitDy=0;exitPerimeter=0;strokeColor=#ff0000;" edge="1" parent="1">
          <mxGeometry relative="1" as="geometry">
            <mxPoint x="353.75" y="396" as="sourcePoint" />
            <mxPoint x="413.75" y="388" as="targetPoint" />
            <Array as="points">
              <mxPoint x="353.75" y="388" />
            </Array>
          </mxGeometry>
        </mxCell>
        <mxCell id="Z9Syrcvqy4jxzuHilq_a-25" value="&lt;span style=&quot;font-size: 8px;&quot;&gt;4.3 Input.habilitar(&quot;refeicao&quot;)&lt;/span&gt;" style="rounded=1;whiteSpace=wrap;html=1;arcSize=40;fontColor=#000000;fillColor=#ffffc0;strokeColor=#ff0000;" vertex="1" parent="1">
          <mxGeometry x="414" y="422" width="126" height="30" as="geometry" />
        </mxCell>
        <mxCell id="Z9Syrcvqy4jxzuHilq_a-28" value="&lt;font color=&quot;#82b366&quot;&gt;&lt;span style=&quot;font-size: 8px;&quot;&gt;Atribui funções aos &lt;br&gt;botões das janelas&lt;/span&gt;&lt;/font&gt;" style="text;html=1;strokeColor=none;fillColor=none;align=center;verticalAlign=middle;whiteSpace=wrap;rounded=0;" vertex="1" parent="1">
          <mxGeometry x="580" y="356" width="110" height="62" as="geometry" />
        </mxCell>
        <mxCell id="Z9Syrcvqy4jxzuHilq_a-31" style="edgeStyle=orthogonalEdgeStyle;rounded=0;orthogonalLoop=1;jettySize=auto;html=1;entryX=0.25;entryY=0.5;entryDx=0;entryDy=0;entryPerimeter=0;exitX=1;exitY=0.5;exitDx=0;exitDy=0;exitPerimeter=0;strokeColor=#ff0000;" edge="1" parent="1" source="Z9Syrcvqy4jxzuHilq_a-29" target="Z9Syrcvqy4jxzuHilq_a-8">
          <mxGeometry relative="1" as="geometry">
            <Array as="points">
              <mxPoint x="278" y="237" />
              <mxPoint x="350" y="237" />
            </Array>
          </mxGeometry>
        </mxCell>
        <mxCell id="Z9Syrcvqy4jxzuHilq_a-32" style="edgeStyle=orthogonalEdgeStyle;rounded=0;orthogonalLoop=1;jettySize=auto;html=1;entryX=0.25;entryY=0.5;entryDx=0;entryDy=0;entryPerimeter=0;exitX=1;exitY=0.5;exitDx=0;exitDy=0;exitPerimeter=0;strokeColor=#ff0000;" edge="1" parent="1">
          <mxGeometry relative="1" as="geometry">
            <mxPoint x="278" y="370.5" as="sourcePoint" />
            <mxPoint x="350" y="373.5" as="targetPoint" />
            <Array as="points">
              <mxPoint x="278" y="373.5" />
              <mxPoint x="350" y="373.5" />
            </Array>
          </mxGeometry>
        </mxCell>
        <mxCell id="Z9Syrcvqy4jxzuHilq_a-29" value="" style="shape=line;html=1;strokeWidth=6;strokeColor=#ff0000;rotation=-90;" vertex="1" parent="1">
          <mxGeometry x="205" y="301" width="145" height="10" as="geometry" />
        </mxCell>
        <mxCell id="Z9Syrcvqy4jxzuHilq_a-33" value="&lt;br&gt;&lt;font style=&quot;font-size: 10px;&quot;&gt;body.onload&lt;/font&gt;" style="text;html=1;strokeColor=none;fillColor=none;align=center;verticalAlign=middle;whiteSpace=wrap;rounded=0;" vertex="1" parent="1">
          <mxGeometry x="190" y="261" width="60" height="30" as="geometry" />
        </mxCell>
        <mxCell id="Z9Syrcvqy4jxzuHilq_a-27" value="" style="html=1;dropTarget=0;whiteSpace=wrap;fillColor=none;dashed=1;dashPattern=1 2;shadow=0;rounded=1;strokeColor=#82b366;" vertex="1" parent="1">
          <mxGeometry x="390" y="312" width="190" height="146" as="geometry" />
        </mxCell>
        <mxCell id="Z9Syrcvqy4jxzuHilq_a-35" style="edgeStyle=orthogonalEdgeStyle;rounded=0;orthogonalLoop=1;jettySize=auto;html=1;entryX=0;entryY=0.5;entryDx=0;entryDy=0;exitX=0.803;exitY=0.5;exitDx=0;exitDy=0;exitPerimeter=0;strokeColor=#ff0000;" edge="1" parent="1">
          <mxGeometry relative="1" as="geometry">
            <mxPoint x="354" y="447" as="sourcePoint" />
            <mxPoint x="414" y="439" as="targetPoint" />
            <Array as="points">
              <mxPoint x="354" y="439" />
            </Array>
          </mxGeometry>
        </mxCell>
        <mxCell id="Z9Syrcvqy4jxzuHilq_a-36" value="&lt;font style=&quot;font-size: 15px;&quot;&gt;&lt;b&gt;main.js&lt;/b&gt;&lt;/font&gt;" style="text;html=1;strokeColor=none;fillColor=none;align=center;verticalAlign=middle;whiteSpace=wrap;rounded=0;shadow=0;" vertex="1" parent="1">
          <mxGeometry x="185" y="114" width="60" height="30" as="geometry" />
        </mxCell>
      </root>
    </mxGraphModel>
  </diagram>
</mxfile>
